<?xml version="1.0" encoding="utf-8"?>
<svg width="22" height="22" viewBox="0 0 22 22" fill="none" version="1.2" baseProfile="tiny-ps" xmlns="http://www.w3.org/2000/svg">
  <title>Flow-Com</title>
  <path fill-rule="evenodd" d="M19.6408 4.71447C15.883 1.98292 10.3198 2.48439 6.52672 6.12423C2.73366 9.76406 2.00335 15.3018 4.57773 19.1692C4.12508 18.829 3.69382 18.4483 3.28912 18.0265C-0.755409 13.8116 -0.617402 7.11613 3.5974 3.0716C7.81222 -0.972952 14.5078 -0.834923 18.5522 3.37987C18.9571 3.80162 19.3198 4.2482 19.6408 4.71447Z" fill="#52D3D8" />
  <path fill-rule="evenodd" d="M15.068 21.5285C13.0433 21.3161 11.0067 20.3581 9.40522 18.6891C6.0887 15.2329 5.89438 10.0377 8.97119 7.0852C10.5423 5.57754 12.6626 4.9462 14.8031 5.14953C12.0904 4.49357 9.1107 5.19224 6.94765 7.2679C3.57581 10.5035 3.46539 15.8599 6.70102 19.2319C8.93074 21.5554 12.1676 22.3303 15.068 21.5285Z" fill="#3887BE" />
  <path fill-rule="evenodd" d="M20.2379 16.7159C17.6811 18.5459 13.8842 18.1947 11.244 15.7178C9.95607 14.5095 9.15542 12.9943 8.86625 11.4492C8.66639 12.9492 8.98257 14.5952 9.87051 16.0778C11.7613 19.2351 15.5284 20.4565 18.2848 18.8058C19.1379 18.2948 19.7943 17.5688 20.2379 16.7159Z" fill="#38419D" />
</svg>